<svg width="24" height="24" viewBox="0 0 24 24" fill="none" xmlns="http://www.w3.org/2000/svg">
<g clip-path="url(#clip0_1_418)">
<path d="M11.8402 7.44432H11.5474L10.9615 14.6914H12.8254L12.3462 11.6455L11.8402 7.44432Z" fill="#808080"/>
<path d="M12 0.501877C9.72587 0.501877 7.50283 1.17623 5.61197 2.43966C3.72112 3.70309 2.24737 5.49885 1.37711 7.59986C0.506844 9.70087 0.279142 12.0128 0.7228 14.2432C1.16646 16.4736 2.26155 18.5224 3.86959 20.1304C5.47763 21.7384 7.5264 22.8335 9.75682 23.2772C11.9872 23.7208 14.2991 23.4931 16.4001 22.6229C18.5011 21.7526 20.2969 20.2789 21.5603 18.388C22.8238 16.4972 23.4981 14.2741 23.4981 12C23.4981 8.95051 22.2867 6.02592 20.1304 3.8696C17.9741 1.71329 15.0495 0.501881 12 0.501877ZM13.5976 19.4176L12.9053 15.1115H10.9083L10.5621 19.4176H8.16577L11.0947 6.20499L9.94974 4.08337H12.5858L15.8342 19.4176H13.5976Z" fill="#808080"/>
</g>
<defs>
<clipPath id="clip0_1_418">
<rect width="24" height="24" fill="white"/>
</clipPath>
</defs>
</svg>
