<svg width="94" height="24" viewBox="0 0 94 24" fill="none" xmlns="http://www.w3.org/2000/svg">
<path d="M35.6751 20.3345L34.5294 17.4239H29.8576L28.7417 20.3345H27.1795L31.3752 9.91214H33.0565L37.2522 20.3345H35.6751ZM32.1786 11.4115L30.3783 16.0862H34.0087L32.1786 11.4115ZM39.9062 23.1275H38.5225V13.2638H39.8765V14.3663C40.0848 13.9939 40.3972 13.6901 40.8138 13.4549C41.2304 13.2197 41.7164 13.1021 42.2719 13.1021C43.3035 13.1021 44.1069 13.45 44.6822 14.1458C45.2674 14.8416 45.5601 15.7236 45.5601 16.7918C45.5601 17.8698 45.2575 18.7616 44.6525 19.4672C44.0573 20.1728 43.2489 20.5256 42.2273 20.5256C41.7016 20.5256 41.2354 20.4178 40.8287 20.2022C40.422 19.9866 40.1145 19.7122 39.9062 19.379V23.1275ZM44.1317 16.7918C44.1317 16.0764 43.9383 15.4884 43.5515 15.0278C43.1745 14.5574 42.6637 14.3222 42.019 14.3222C41.3842 14.3222 40.8684 14.5574 40.4716 15.0278C40.0848 15.4884 39.8914 16.0764 39.8914 16.7918C39.8914 17.5268 40.0848 18.1295 40.4716 18.5999C40.8684 19.0605 41.3842 19.2908 42.019 19.2908C42.6538 19.2908 43.1646 19.0605 43.5515 18.5999C43.9383 18.1295 44.1317 17.5268 44.1317 16.7918ZM48.7258 23.1275H47.3421V13.2638H48.6961V14.3663C48.9044 13.9939 49.2168 13.6901 49.6334 13.4549C50.05 13.2197 50.536 13.1021 51.0915 13.1021C52.1231 13.1021 52.9265 13.45 53.5018 14.1458C54.087 14.8416 54.3797 15.7236 54.3797 16.7918C54.3797 17.8698 54.0771 18.7616 53.4721 19.4672C52.8769 20.1728 52.0685 20.5256 51.0469 20.5256C50.5212 20.5256 50.055 20.4178 49.6483 20.2022C49.2416 19.9866 48.9341 19.7122 48.7258 19.379V23.1275ZM52.9513 16.7918C52.9513 16.0764 52.7579 15.4884 52.3711 15.0278C51.9941 14.5574 51.4833 14.3222 50.8386 14.3222C50.2038 14.3222 49.688 14.5574 49.2912 15.0278C48.9044 15.4884 48.711 16.0764 48.711 16.7918C48.711 17.5268 48.9044 18.1295 49.2912 18.5999C49.688 19.0605 50.2038 19.2908 50.8386 19.2908C51.4734 19.2908 51.9842 19.0605 52.3711 18.5999C52.7579 18.1295 52.9513 17.5268 52.9513 16.7918ZM66.7555 12.2789L65.4462 12.7346C65.3768 12.2838 65.1536 11.8771 64.7767 11.5144C64.3997 11.142 63.879 10.9558 63.2144 10.9558C62.6292 10.9558 62.1432 11.1224 61.7563 11.4556C61.3691 11.7888 61.1757 12.2005 61.1757 12.6905C61.1757 13.0727 61.2898 13.3961 61.5179 13.6607C61.7563 13.9253 62.0936 14.1066 62.53 14.2046L64.1071 14.5427C64.98 14.7289 65.6545 15.0817 66.1306 15.6011C66.6067 16.1107 66.8448 16.733 66.8448 17.468C66.8448 18.3108 66.5075 19.036 65.833 19.6436C65.1585 20.2512 64.2807 20.555 63.1995 20.555C62.0192 20.555 61.0914 20.2512 60.4169 19.6436C59.7523 19.0262 59.3655 18.2961 59.2564 17.4533L60.655 17.0123C60.7145 17.6395 60.9625 18.1687 61.3989 18.5999C61.8357 19.0311 62.4308 19.2467 63.1847 19.2467C63.879 19.2467 64.4146 19.0899 64.7915 18.7763C65.1685 18.4627 65.3569 18.0658 65.3569 17.5856C65.3569 17.1936 65.223 16.8555 64.9552 16.5713C64.6874 16.2773 64.2956 16.0764 63.7798 15.9686L62.2771 15.6452C61.4931 15.4786 60.8682 15.1503 60.402 14.6603C59.9358 14.1703 59.7028 13.548 59.7028 12.7934C59.7028 11.9702 60.04 11.2498 60.7145 10.6324C61.3989 10.0052 62.2225 9.69164 63.1847 9.69164C64.2658 9.69164 65.0941 9.95134 65.6694 10.4707C66.2447 10.9901 66.6067 11.5928 66.7555 12.2789ZM70.4305 11.0293V13.2638H71.9778V14.5133H70.4305V18.1883C70.4305 18.5215 70.5049 18.7665 70.6537 18.9233C70.8124 19.0801 71.0703 19.1585 71.4273 19.1585C71.6356 19.1585 71.8191 19.1389 71.9778 19.0997V20.2757C71.7398 20.3639 71.4224 20.408 71.0256 20.408C70.4106 20.408 69.9246 20.2316 69.5675 19.8788C69.2104 19.526 69.0319 19.0311 69.0319 18.3941V14.5133H67.6631V13.2638H68.0499C68.4169 13.2638 68.6897 13.1658 68.8682 12.9698C69.0567 12.764 69.1509 12.4994 69.1509 12.176V11.0293H70.4305ZM75.2447 18.6587C75.6812 19.0997 76.2118 19.3202 76.8367 19.3202C77.4616 19.3202 77.9873 19.0997 78.4138 18.6587C78.8503 18.2079 79.0685 17.5856 79.0685 16.7918C79.0685 16.0078 78.8503 15.3953 78.4138 14.9543C77.9873 14.5035 77.4616 14.2781 76.8367 14.2781C76.2118 14.2781 75.6812 14.5035 75.2447 14.9543C74.8182 15.3953 74.605 16.0078 74.605 16.7918C74.605 17.5856 74.8182 18.2079 75.2447 18.6587ZM74.2032 14.1164C74.8976 13.401 75.7754 13.0433 76.8367 13.0433C77.8981 13.0433 78.7709 13.401 79.4553 14.1164C80.1497 14.822 80.4968 15.7138 80.4968 16.7918C80.4968 17.8796 80.1546 18.7812 79.4702 19.4966C78.7858 20.2022 77.908 20.555 76.8367 20.555C75.7655 20.555 74.8876 20.2022 74.2032 19.4966C73.5188 18.7812 73.1766 17.8796 73.1766 16.7918C73.1766 15.7138 73.5188 14.822 74.2032 14.1164ZM86.259 13.1903V14.6603C86.0507 14.6309 85.8474 14.6162 85.649 14.6162C84.3397 14.6162 83.6851 15.3414 83.6851 16.7918V20.3345H82.2865V13.2638H83.6553V14.4986C84.0917 13.597 84.8059 13.1462 85.7978 13.1462C85.9565 13.1462 86.1103 13.1609 86.259 13.1903ZM88.5843 16.0715H92.4974C92.4775 15.5423 92.299 15.1111 91.9617 14.7779C91.6245 14.4349 91.1484 14.2634 90.5334 14.2634C89.978 14.2634 89.5217 14.4447 89.1646 14.8073C88.8075 15.1601 88.6141 15.5815 88.5843 16.0715ZM92.7057 17.909L93.9108 18.3206C93.7025 18.9772 93.3157 19.5162 92.7503 19.9376C92.1849 20.3492 91.5005 20.555 90.6971 20.555C89.6953 20.555 88.8422 20.2169 88.138 19.5407C87.4437 18.8547 87.0965 17.9335 87.0965 16.7771C87.0965 15.6991 87.4337 14.8073 88.1082 14.1017C88.7827 13.3961 89.5862 13.0433 90.5185 13.0433C91.5997 13.0433 92.4428 13.3814 93.0479 14.0576C93.6529 14.724 93.9555 15.6207 93.9555 16.7477C93.9555 16.9241 93.9455 17.0711 93.9257 17.1887H88.5397C88.5496 17.8159 88.7579 18.3304 89.1646 18.7322C89.5812 19.134 90.092 19.3349 90.6971 19.3349C91.7187 19.3349 92.3883 18.8596 92.7057 17.909Z" fill="black"/>
<path opacity="0.6" d="M28.2711 3.51763V0.980813H28.9002C29.5577 0.980813 30.1018 1.38962 30.1018 2.25202C30.1018 3.11443 29.552 3.51763 28.8945 3.51763H28.2711ZM28.9229 4.23444C30.0678 4.23444 30.9123 3.50643 30.9123 2.25202C30.9123 0.997613 30.0735 0.264008 28.9285 0.264008H27.4889V4.23444H28.9229ZM32.8714 2.24642C32.8714 1.35042 33.5062 0.924813 34.124 0.924813C34.7475 0.924813 35.3823 1.35042 35.3823 2.24642C35.3823 3.14243 34.7475 3.56803 34.124 3.56803C33.5062 3.56803 32.8714 3.14243 32.8714 2.24642ZM32.0609 2.25202C32.0609 3.52883 33.0358 4.31844 34.124 4.31844C35.218 4.31844 36.1929 3.52883 36.1929 2.25202C36.1929 0.969613 35.218 0.180008 34.124 0.180008C33.0358 0.180008 32.0609 0.969613 32.0609 2.25202ZM41.2158 3.00803L40.3203 0.264008H39.5098L38.6199 2.99683L37.883 0.264008H37.0555L38.1721 4.23444H38.9883L39.9065 1.40642L40.8247 4.23444H41.6296L42.7405 0.264008H41.9413L41.2158 3.00803ZM47.4072 4.23444V0.264008H46.625V2.89043L44.9529 0.264008H43.978V4.23444H44.7602V1.41762L46.5853 4.23444H47.4072ZM51.605 4.23444V3.49523H49.8139V0.264008H49.0317V4.23444H51.605ZM53.3514 2.24642C53.3514 1.35042 53.9862 0.924813 54.604 0.924813C55.2275 0.924813 55.8623 1.35042 55.8623 2.24642C55.8623 3.14243 55.2275 3.56803 54.604 3.56803C53.9862 3.56803 53.3514 3.14243 53.3514 2.24642ZM52.5409 2.25202C52.5409 3.52883 53.5158 4.31844 54.604 4.31844C55.698 4.31844 56.6729 3.52883 56.6729 2.25202C56.6729 0.969613 55.698 0.180008 54.604 0.180008C53.5158 0.180008 52.5409 0.969613 52.5409 2.25202ZM60.5921 4.23444H61.4422L59.9119 0.264008H59.005L57.4633 4.23444H58.2908L58.6253 3.32723H60.2576L60.5921 4.23444ZM59.4415 1.12081L59.9969 2.62162H58.886L59.4415 1.12081ZM63.4466 3.51763V0.980813H64.0757C64.7332 0.980813 65.2774 1.38962 65.2774 2.25202C65.2774 3.11443 64.7276 3.51763 64.0701 3.51763H63.4466ZM64.0984 4.23444C65.2433 4.23444 66.0879 3.50643 66.0879 2.25202C66.0879 0.997613 65.249 0.264008 64.1041 0.264008H62.6644V4.23444H64.0984ZM70.1561 2.24642C70.1561 1.35042 70.7909 0.924813 71.4087 0.924813C72.0322 0.924813 72.667 1.35042 72.667 2.24642C72.667 3.14243 72.0322 3.56803 71.4087 3.56803C70.7909 3.56803 70.1561 3.14243 70.1561 2.24642ZM69.3456 2.25202C69.3456 3.52883 70.3204 4.31844 71.4087 4.31844C72.5026 4.31844 73.4775 3.52883 73.4775 2.25202C73.4775 0.969613 72.5026 0.180008 71.4087 0.180008C70.3204 0.180008 69.3456 0.969613 69.3456 2.25202ZM78.2932 4.23444V0.264008H77.511V2.89043L75.8389 0.264008H74.864V4.23444H75.6462V1.41762L77.4713 4.23444H78.2932ZM84.9857 0.997614V0.264008H81.6585V0.997614H82.9282V4.23444H83.716V0.997614H84.9857ZM89.5661 4.23444V0.264008H88.7783V1.86002H87.0268V0.264008H86.2447V4.23444H87.0268V2.58802H88.7783V4.23444H89.5661ZM93.7094 4.23444V3.50643H91.975V2.58802H93.545V1.89922H91.975V0.992013H93.7094V0.264008H91.1928V4.23444H93.7094Z" fill="black"/>
<path d="M17.7306 16.147C17.2705 17.1537 17.0509 17.603 16.4585 18.4924C15.6331 19.7345 14.4684 21.2815 13.0253 21.2946C11.7434 21.3065 11.414 20.4704 9.67367 20.4805C7.93345 20.4905 7.57077 21.3095 6.28882 21.2977C4.84567 21.285 3.74311 19.888 2.91679 18.6451C0.60708 15.1713 0.365766 11.0951 1.79027 8.92821C2.80258 7.38729 4.40024 6.48694 5.90183 6.48694C7.43084 6.48694 8.39221 7.31512 9.65688 7.31512C10.8834 7.31512 11.6305 6.48561 13.3986 6.48561C14.735 6.48561 16.1511 7.20445 17.1603 8.44647C13.8538 10.2363 14.3914 14.8997 17.7306 16.147Z" fill="black"/>
<path d="M12.244 4.31071C12.8865 3.49604 13.3736 2.34678 13.1964 1.17119C12.147 1.2421 10.9204 1.90185 10.2039 2.76153C9.55347 3.54161 9.01629 4.69879 9.2253 5.82356C10.37 5.85905 11.5554 5.18305 12.244 4.31071Z" fill="black"/>
</svg>
