<svg width="24" height="24" viewBox="0 0 24 24" fill="none" xmlns="http://www.w3.org/2000/svg">
<path d="M2.70419 12.5397C2.36945 12.4067 1.99997 12.6495 1.99997 13.0097V18.375C1.99997 20.5842 3.79083 22.375 5.99997 22.375H18C20.2091 22.375 22 20.5842 22 18.375V13.0098C22 12.6496 21.6305 12.4068 21.2958 12.5398C20.029 13.0432 18.4078 13.5627 16.5036 13.9087C15.7992 14.0367 15.2884 14.642 14.9597 15.278C14.461 16.2429 13.454 16.9024 12.2929 16.9024H11.7069C10.5459 16.9024 9.53888 16.2429 9.04017 15.278C8.71145 14.642 8.20065 14.0366 7.49627 13.9087C5.59204 13.5627 3.97096 13.0432 2.70419 12.5397Z" fill="black"/>
<path fill-rule="evenodd" clip-rule="evenodd" d="M18 6.375H5.99997C3.79083 6.375 1.99997 8.16586 1.99997 10.375C1.99997 10.5921 2.10739 10.7935 2.29489 10.9029C3.14275 11.3976 5.76727 12.7693 9.49814 13.2321V13.6891C9.49814 14.7937 10.3936 15.6891 11.4981 15.6891H12.5016C13.6061 15.6891 14.5016 14.7937 14.5016 13.6891V13.2322C18.2326 12.7694 20.8572 11.3976 21.705 10.9029C21.8925 10.7935 22 10.5921 22 10.375C22 8.16586 20.2091 6.375 18 6.375ZM11.0751 12.4694C10.9646 12.4694 10.8751 12.5589 10.8751 12.6694V13.6582C10.8751 14.1 11.2333 14.4582 11.6751 14.4582H12.3247C12.7666 14.4582 13.1247 14.1 13.1247 13.6582V12.6694C13.1247 12.5589 13.0352 12.4694 12.9247 12.4694H11.0751Z" fill="black"/>
<path fill-rule="evenodd" clip-rule="evenodd" d="M10.9998 3.125C9.75721 3.125 8.74985 4.13236 8.74985 5.375V6.375C8.74985 6.78921 8.41406 7.125 7.99985 7.125C7.58563 7.125 7.24985 6.78921 7.24985 6.375V5.375C7.24985 3.30393 8.92878 1.625 10.9998 1.625H12.9998C15.0709 1.625 16.7498 3.30393 16.7498 5.375V6.375C16.7498 6.78921 16.4141 7.125 15.9998 7.125C15.5856 7.125 15.2498 6.78921 15.2498 6.375V5.375C15.2498 4.13236 14.2425 3.125 12.9998 3.125H10.9998Z" fill="black"/>
</svg>
