<svg width="16" height="14" viewBox="0 0 16 14" fill="none" xmlns="http://www.w3.org/2000/svg">
<path d="M12.5333 1H3.46665C2.71991 1 2.34654 1 2.06133 1.14532C1.81044 1.27316 1.60647 1.47713 1.47864 1.72801C1.33331 2.01323 1.33331 2.3866 1.33331 3.13333V12.137C1.33331 12.4228 1.33331 12.5657 1.39349 12.6517C1.44604 12.7268 1.52722 12.777 1.61793 12.7904C1.71416 12.8046 1.83092 12.7508 2.05078 12.6412C2.07087 12.6312 2.08091 12.6262 2.09092 12.6206C2.09974 12.6157 2.10862 12.6104 2.11712 12.605C2.12677 12.5988 2.13609 12.5922 2.15473 12.5791L4.50321 10.9198C4.81149 10.702 4.96563 10.5931 5.13379 10.5159C5.28304 10.4473 5.44015 10.3974 5.60159 10.3673C5.7835 10.3333 5.97223 10.3333 6.3497 10.3333H12.5333C13.28 10.3333 13.6534 10.3333 13.9386 10.188C14.1895 10.0602 14.3935 9.8562 14.5213 9.60532C14.6666 9.32011 14.6666 8.94674 14.6666 8.2V3.13333C14.6666 2.3866 14.6666 2.01323 14.5213 1.72801C14.3935 1.47713 14.1895 1.27316 13.9386 1.14532C13.6534 1 13.28 1 12.5333 1Z" stroke="#808080" stroke-width="1.2"/>
</svg>
