<svg width="24" height="24" viewBox="0 0 24 24" fill="none" xmlns="http://www.w3.org/2000/svg">
<path d="M11.8607 21C11.4243 21 10.9854 20.9952 10.5465 20.9879C9.98949 20.9783 9.63502 20.6407 9.59885 20.0885C9.58438 19.8739 9.58438 19.6593 9.58438 19.4857C9.58438 18.8201 9.58438 18.157 9.58438 17.4914L9.59403 14.0335C9.59403 13.9467 9.59403 13.8599 9.59403 13.7731C9.59403 13.7321 9.59403 13.6694 9.5892 13.6091C9.51686 13.6067 9.4397 13.6043 9.38906 13.6043C9.19615 13.5995 9.00324 13.6019 8.80792 13.6043C8.68253 13.6043 8.55713 13.6043 8.42933 13.6043H8.37146C8.21713 13.6043 8.06039 13.6043 7.90606 13.5898C7.34662 13.5488 7.00903 13.1944 7.00421 12.6397C6.99697 11.9043 6.99938 11.1399 7.00903 10.3706C7.01626 9.80638 7.36832 9.46155 7.95188 9.44226C8.20025 9.43503 8.44862 9.43262 8.69458 9.43262C8.87785 9.43262 9.06352 9.43262 9.24679 9.42538C9.3553 9.42538 9.46863 9.42056 9.58197 9.41332C9.58679 9.32652 9.58679 9.23488 9.5892 9.14325L9.59644 8.7936C9.6085 8.27033 9.62055 7.74706 9.62779 7.22379C9.63502 6.62577 9.80141 6.09286 9.94609 5.69257C10.3874 4.47964 11.2627 3.66219 12.548 3.2619C13.0254 3.1148 13.5077 3.03282 13.9803 3.02317L14.33 3.01353C14.9159 2.99906 15.5236 2.98218 16.1385 3.04487C16.6666 3.10034 17.0114 3.48133 17.0187 4.01907C17.0259 4.58574 17.0211 5.37668 17.009 6.13626C17.0018 6.59201 16.6594 6.9489 16.1964 6.98507C16.0421 6.99712 15.8853 7.00195 15.7286 7.00677C15.6369 7.00677 15.5453 7.01159 15.4537 7.01641C15.3765 7.02124 15.2993 7.02124 15.2222 7.02365C15.0462 7.02847 14.8798 7.03329 14.7375 7.05982C14.383 7.12975 14.1829 7.31301 14.0888 7.66025C14.0551 7.78564 14.0358 7.89657 14.0358 7.9882C14.0286 8.49218 14.0286 8.95999 14.0358 9.41332C14.0961 9.41332 14.1588 9.41332 14.2215 9.41332H14.3083C14.4795 9.41332 14.6507 9.41574 14.8219 9.41574C15.0534 9.41574 15.2873 9.41574 15.5188 9.42056C15.9818 9.42538 16.3459 9.4302 16.6087 9.73645C16.874 10.0427 16.8282 10.402 16.7606 10.8963C16.7245 11.1664 16.6811 11.4509 16.6232 11.7934C16.587 12.0031 16.5629 12.1792 16.5436 12.3239C16.3941 13.3873 16.1337 13.5971 15.0196 13.5922C14.8846 13.5922 14.7254 13.5922 14.5398 13.5922C14.3854 13.5922 14.2215 13.6019 14.031 13.6188C14.0261 13.7345 14.0237 13.8575 14.0237 13.9949C14.0237 14.7087 14.0237 15.4249 14.0237 16.1387C14.0237 17.2238 14.0237 18.3113 14.0189 19.3964V19.6303C14.0189 20.1054 14.0213 20.4478 13.7512 20.7203C13.4788 20.9928 13.1291 20.9952 12.6444 20.9952H12.4129C12.2297 20.9952 12.044 20.9976 11.8559 20.9976L11.8607 21ZM10.7949 19.7871C11.3423 19.7967 11.88 19.7967 12.4081 19.7943H12.6468C12.7023 19.7943 12.7626 19.7943 12.8156 19.7943C12.8156 19.7437 12.8156 19.693 12.8156 19.6424V19.3988C12.8205 18.3137 12.8205 17.231 12.8205 16.1459C12.8205 15.4297 12.8205 14.7159 12.8205 13.9998C12.8205 13.7008 12.8301 13.4572 12.8494 13.2281C12.8831 12.8254 13.1942 12.5023 13.5897 12.4589C13.9659 12.4179 14.2552 12.3986 14.5277 12.3962C14.723 12.3938 14.8894 12.3962 15.0317 12.3962C15.1281 12.3962 15.2342 12.3962 15.3186 12.3962C15.3307 12.3263 15.3403 12.2443 15.3524 12.1671C15.3741 12.0128 15.4006 11.8247 15.4368 11.6029C15.485 11.3183 15.5284 11.0338 15.567 10.7492C15.5718 10.7155 15.5767 10.6769 15.5815 10.6383C15.555 10.6383 15.5284 10.6383 15.5043 10.6383C15.2752 10.6359 15.0462 10.6335 14.8171 10.6335C14.6435 10.6335 14.4698 10.6335 14.2986 10.6311H14.2166C14.0744 10.6311 13.9273 10.6311 13.7705 10.6166C13.1966 10.5684 12.847 10.1922 12.8349 9.61347C12.8253 9.09261 12.8229 8.5597 12.8325 7.98097C12.8349 7.78564 12.8663 7.58068 12.929 7.35642C13.1436 6.56549 13.7054 6.04463 14.5108 5.88789C14.7496 5.84207 14.9859 5.83484 15.1932 5.83002C15.2608 5.83002 15.3307 5.82519 15.3982 5.82278C15.4995 5.81796 15.6008 5.81555 15.7021 5.81314C15.7382 5.81314 15.7744 5.81314 15.813 5.81073C15.8202 5.24887 15.8226 4.68943 15.8178 4.23851C15.3452 4.20475 14.8677 4.2168 14.3661 4.23127L14.0117 4.24092C13.65 4.24815 13.2786 4.31085 12.9097 4.42659C11.9885 4.71355 11.3905 5.26575 11.0818 6.11697C10.9155 6.57513 10.8407 6.92478 10.8359 7.25032C10.8311 7.77841 10.8166 8.3065 10.8045 8.83459L10.7973 9.18183C10.7925 9.38198 10.7877 9.58936 10.766 9.80156C10.7201 10.2284 10.4043 10.5491 9.97744 10.5997C9.73148 10.6287 9.4831 10.6383 9.27573 10.6431C9.08523 10.648 8.89714 10.648 8.70664 10.6504C8.54267 10.6504 8.37869 10.6504 8.21713 10.6552C8.2099 11.2532 8.2099 11.8392 8.21472 12.4083C8.27259 12.4083 8.32805 12.4083 8.38593 12.4083H8.4438C8.56678 12.4083 8.68735 12.4083 8.81033 12.4083C9.01289 12.4083 9.21785 12.4083 9.42041 12.4107C10.5007 12.4324 10.7852 12.7097 10.8045 13.7635C10.8045 13.8575 10.8045 13.954 10.8045 14.048L10.7949 17.5059C10.7949 18.169 10.7949 18.8346 10.7949 19.4977C10.7949 19.6062 10.7949 19.7051 10.7973 19.7991L10.7949 19.7871Z" fill="#808080"/>
</svg>
