<svg width="24" height="24" viewBox="0 0 24 24" fill="none" xmlns="http://www.w3.org/2000/svg">
<path d="M16.3753 6.42096C15.8598 6.4285 15.4348 6.87611 15.4323 7.41928C15.4273 7.99263 15.8724 8.44778 16.4382 8.45281C16.9587 8.45533 17.4264 8.01275 17.4415 7.50478C17.4591 6.92138 16.9612 6.41593 16.3753 6.42347V6.42096Z" fill="#808080"/>
<path d="M18.4878 3H5.51215C4.12657 3 3 4.12657 3 5.51215V18.4878C3 19.8734 4.12657 21 5.51215 21H18.4878C19.8734 21 21 19.8734 21 18.4878V5.51215C21 4.12657 19.8734 3 18.4878 3ZM19.7427 18.4878C19.7427 19.1794 19.1794 19.7427 18.4878 19.7427H5.51215C4.82062 19.7427 4.25733 19.1794 4.25733 18.4878V5.51215C4.25733 4.82062 4.82062 4.25733 5.51215 4.25733H18.4878C19.1794 4.25733 19.7427 4.82062 19.7427 5.51215V18.4878Z" fill="#808080"/>
<path d="M11.9997 7.72357C9.40453 7.72357 7.29221 9.83589 7.29221 12.431C7.29221 15.0262 9.40453 17.1385 11.9997 17.1385C14.5948 17.1385 16.7071 15.0262 16.7071 12.431C16.7071 9.83589 14.5948 7.72357 11.9997 7.72357ZM11.9997 15.8812C10.0986 15.8812 8.54954 14.3346 8.54954 12.431C8.54954 10.5274 10.0961 8.98091 11.9997 8.98091C13.9033 8.98091 15.4498 10.5274 15.4498 12.431C15.4498 14.3346 13.9033 15.8812 11.9997 15.8812Z" fill="#808080"/>
</svg>
