<svg width="24" height="24" viewBox="0 0 24 24" fill="none" xmlns="http://www.w3.org/2000/svg">
<path d="M4.45549 13.88L3.99824 13.4916H3.99824L4.45549 13.88ZM5.33476 11.8385L4.73857 11.771L5.33476 11.8385ZM18.6652 11.8385L19.2614 11.771L18.6652 11.8385ZM19.5445 13.88L20.0018 13.4916L19.5445 13.88ZM18.3204 8.79403L17.7242 8.86157L18.3204 8.79403ZM5.67964 8.79403L6.27582 8.86157L5.67964 8.79403ZM15.5618 19.2106C15.6781 18.9003 15.5209 18.5545 15.2106 18.4382C14.9003 18.3219 14.5545 18.4791 14.4382 18.7894L15.5618 19.2106ZM9.56184 18.7894C9.44555 18.4791 9.09973 18.3219 8.78944 18.4382C8.47914 18.5545 8.32187 18.9003 8.43816 19.2106L9.56184 18.7894ZM18.1699 16.4H5.83014V17.6H18.1699V16.4ZM17.7242 8.86157L18.0691 11.906L19.2614 11.771L18.9166 8.7265L17.7242 8.86157ZM5.93095 11.906L6.27582 8.86157L5.08345 8.7265L4.73857 11.771L5.93095 11.906ZM4.91275 14.2685C5.47787 13.6034 5.83201 12.7794 5.93095 11.906L4.73857 11.771C4.66611 12.4106 4.40705 13.0104 3.99824 13.4916L4.91275 14.2685ZM18.0691 11.906C18.168 12.7794 18.5221 13.6034 19.0873 14.2685L20.0018 13.4916C19.5929 13.0104 19.3339 12.4106 19.2614 11.771L18.0691 11.906ZM5.83014 16.4C4.80684 16.4 4.18782 15.1218 4.91275 14.2685L3.99824 13.4916C2.65635 15.071 3.71479 17.6 5.83014 17.6V16.4ZM18.1699 17.6C20.2852 17.6 21.3437 15.071 20.0018 13.4916L19.0873 14.2685C19.8122 15.1218 19.1932 16.4 18.1699 16.4V17.6ZM18.9166 8.7265C18.5096 5.13395 15.5481 2.4 12 2.4V3.6C14.91 3.6 17.3828 5.84776 17.7242 8.86157L18.9166 8.7265ZM6.27582 8.86157C6.61723 5.84776 9.09001 3.6 12 3.6V2.4C8.45189 2.4 5.49041 5.13395 5.08345 8.7265L6.27582 8.86157ZM14.4382 18.7894C14.0927 19.7114 13.1447 20.4 12 20.4V21.6C13.6254 21.6 15.034 20.619 15.5618 19.2106L14.4382 18.7894ZM12 20.4C10.8553 20.4 9.90735 19.7114 9.56184 18.7894L8.43816 19.2106C8.96602 20.619 10.3746 21.6 12 21.6V20.4Z" fill="#808080"/>
</svg>
