<svg width="102" height="24" viewBox="0 0 102 24" fill="none" xmlns="http://www.w3.org/2000/svg">
<path d="M34.5729 20.1816H33.4495L33.3216 18.7115C33.0751 19.1721 32.6722 19.5691 32.1128 19.9023C31.5535 20.2355 30.8804 20.4021 30.0935 20.4021C29.2308 20.4021 28.4345 20.2012 27.7045 19.7994C26.9746 19.3877 26.3726 18.7605 25.8986 17.9177C25.434 17.0749 25.2018 16.09 25.2018 14.963C25.2018 13.836 25.4483 12.8511 25.9412 12.0083C26.4342 11.1655 27.0504 10.5432 27.7899 10.1414C28.5388 9.73958 29.3399 9.53868 30.1931 9.53868C31.2738 9.53868 32.2124 9.82778 33.0087 10.406C33.8145 10.9744 34.3644 11.7339 34.6583 12.6845L33.3927 13.2431C33.1651 12.4885 32.767 11.9054 32.1982 11.4938C31.6388 11.0724 30.9705 10.8617 30.1931 10.8617C29.2166 10.8617 28.3776 11.2194 27.6761 11.9348C26.9746 12.6502 26.6238 13.6596 26.6238 14.963C26.6238 16.2762 26.9651 17.2954 27.6477 18.0206C28.3397 18.736 29.1692 19.0937 30.1362 19.0937C30.6671 19.0937 31.1364 19.0055 31.544 18.8291C31.9611 18.6527 32.2835 18.4224 32.511 18.1382C32.748 17.8442 32.9234 17.5502 33.0371 17.2562C33.1604 16.9622 33.2315 16.6682 33.2505 16.3742H29.7523V15.0806H34.5729V20.1816ZM37.9808 18.5057C38.3979 18.9467 38.9051 19.1672 39.5024 19.1672C40.0996 19.1672 40.6021 18.9467 41.0097 18.5057C41.4268 18.0549 41.6354 17.4326 41.6354 16.6388C41.6354 15.8548 41.4268 15.2423 41.0097 14.8013C40.6021 14.3505 40.0996 14.1251 39.5024 14.1251C38.9051 14.1251 38.3979 14.3505 37.9808 14.8013C37.5731 15.2423 37.3693 15.8548 37.3693 16.6388C37.3693 17.4326 37.5731 18.0549 37.9808 18.5057ZM36.9854 13.9634C37.649 13.248 38.488 12.8903 39.5024 12.8903C40.5167 12.8903 41.351 13.248 42.0051 13.9634C42.6688 14.669 43.0006 15.5608 43.0006 16.6388C43.0006 17.7266 42.6735 18.6282 42.0194 19.3436C41.3652 20.0493 40.5262 20.4021 39.5024 20.4021C38.4785 20.4021 37.6395 20.0493 36.9854 19.3436C36.3312 18.6282 36.0042 17.7266 36.0042 16.6388C36.0042 15.5608 36.3312 14.669 36.9854 13.9634ZM46.1186 18.5057C46.5357 18.9467 47.0429 19.1672 47.6402 19.1672C48.2374 19.1672 48.7399 18.9467 49.1475 18.5057C49.5646 18.0549 49.7732 17.4326 49.7732 16.6388C49.7732 15.8548 49.5646 15.2423 49.1475 14.8013C48.7399 14.3505 48.2374 14.1251 47.6402 14.1251C47.0429 14.1251 46.5357 14.3505 46.1186 14.8013C45.7109 15.2423 45.5071 15.8548 45.5071 16.6388C45.5071 17.4326 45.7109 18.0549 46.1186 18.5057ZM45.1232 13.9634C45.7868 13.248 46.6258 12.8903 47.6402 12.8903C48.6545 12.8903 49.4888 13.248 50.1429 13.9634C50.8066 14.669 51.1384 15.5608 51.1384 16.6388C51.1384 17.7266 50.8113 18.6282 50.1572 19.3436C49.503 20.0493 48.664 20.4021 47.6402 20.4021C46.6163 20.4021 45.7773 20.0493 45.1232 19.3436C44.469 18.6282 44.142 17.7266 44.142 16.6388C44.142 15.5608 44.469 14.669 45.1232 13.9634ZM52.3509 20.5638L53.6449 20.2551C53.6923 20.7549 53.8867 21.1665 54.228 21.4899C54.5692 21.8231 54.9958 21.9897 55.5078 21.9897C56.9014 21.9897 57.5982 21.2253 57.5982 19.6965V18.6821C57.4275 19.0251 57.1573 19.3044 56.7876 19.5201C56.4274 19.7357 56.0008 19.8435 55.5078 19.8435C54.5977 19.8435 53.844 19.525 53.2468 18.8879C52.659 18.2411 52.3651 17.4179 52.3651 16.4183C52.3651 15.4481 52.659 14.6347 53.2468 13.9781C53.8345 13.3117 54.5882 12.9785 55.5078 12.9785C56.5506 12.9785 57.2521 13.3509 57.6124 14.0957V13.1108H58.935V19.6524C58.935 20.1228 58.8734 20.5589 58.7501 20.9607C58.6364 21.3723 58.4515 21.7496 58.1954 22.0926C57.9395 22.4356 57.5792 22.7051 57.1147 22.9011C56.6596 23.0971 56.124 23.1951 55.5078 23.1951C54.664 23.1951 53.9483 22.9452 53.3605 22.4454C52.7727 21.9554 52.4362 21.3282 52.3509 20.5638ZM55.7069 18.6821C56.2852 18.6821 56.7544 18.4763 57.1147 18.0647C57.4749 17.6433 57.655 17.0945 57.655 16.4183C57.655 15.7421 57.4749 15.1982 57.1147 14.7866C56.7544 14.3652 56.2852 14.1545 55.7069 14.1545C55.1191 14.1545 54.6403 14.3603 54.2706 14.7719C53.9104 15.1835 53.7302 15.7323 53.7302 16.4183C53.7302 17.1141 53.9056 17.6678 54.2564 18.0794C54.6166 18.4812 55.1001 18.6821 55.7069 18.6821ZM62.4061 20.1816H61.0694V9.53868H62.4061V20.1816ZM65.5474 15.9185H69.2874C69.2684 15.3893 69.0978 14.9581 68.7754 14.6249C68.4531 14.2819 67.9981 14.1104 67.4103 14.1104C66.8794 14.1104 66.4433 14.2917 66.102 14.6543C65.7607 15.0071 65.5759 15.4285 65.5474 15.9185ZM69.4865 17.756L70.6383 18.1676C70.4392 18.8242 70.0695 19.3632 69.5291 19.7847C68.9888 20.1963 68.3346 20.4021 67.5667 20.4021C66.6092 20.4021 65.7939 20.064 65.1208 19.3877C64.4572 18.7017 64.1254 17.7805 64.1254 16.6241C64.1254 15.5461 64.4477 14.6543 65.0924 13.9487C65.737 13.2431 66.5049 12.8903 67.3961 12.8903C68.4294 12.8903 69.2352 13.2284 69.8135 13.9046C70.3918 14.571 70.681 15.4677 70.681 16.5947C70.681 16.7711 70.6715 16.9181 70.6525 17.0357H65.5048C65.5143 17.6629 65.7133 18.1774 66.102 18.5792C66.5002 18.981 66.9884 19.1819 67.5667 19.1819C68.5432 19.1819 69.1831 18.7066 69.4865 17.756ZM77.4783 14.6249H79.4975C80.0948 14.6249 80.5688 14.4681 80.9196 14.1545C81.2703 13.8311 81.4457 13.3999 81.4457 12.8609C81.4457 12.3121 81.2703 11.876 80.9196 11.5526C80.5688 11.2194 80.0948 11.0528 79.4975 11.0528H77.4783V14.6249ZM79.7535 15.9185H77.4783V20.1816H76.0847V9.75918H79.7535C80.6731 9.75918 81.422 10.0532 82.0003 10.6412C82.5786 11.2292 82.8678 11.9642 82.8678 12.8462C82.8678 13.738 82.5786 14.473 82.0003 15.0512C81.422 15.6294 80.6731 15.9185 79.7535 15.9185ZM85.6251 20.1816H84.2884V9.53868H85.6251V20.1816ZM87.4724 18.2852C87.4724 17.6776 87.662 17.1925 88.0412 16.8299C88.4204 16.4575 88.9229 16.2272 89.5486 16.139L91.3972 15.8597C91.748 15.8107 91.9234 15.6343 91.9234 15.3305C91.9234 14.9581 91.8001 14.6543 91.5536 14.4191C91.3072 14.1839 90.9374 14.0663 90.4445 14.0663C89.9894 14.0663 89.6292 14.1986 89.3637 14.4632C89.0983 14.718 88.9419 15.061 88.8945 15.4922L87.6146 15.1835C87.681 14.5073 87.9796 13.9585 88.5105 13.5371C89.0414 13.1059 89.6766 12.8903 90.416 12.8903C91.383 12.8903 92.0988 13.1353 92.5633 13.6253C93.0278 14.1055 93.2601 14.7229 93.2601 15.4775V19.0202C93.2601 19.4416 93.2885 19.8288 93.3454 20.1816H92.0371C91.9897 19.8876 91.966 19.569 91.966 19.226C91.7764 19.5396 91.4968 19.8141 91.127 20.0493C90.7668 20.2845 90.3117 20.4021 89.7619 20.4021C89.0888 20.4021 88.5389 20.1963 88.1123 19.7847C87.6857 19.3632 87.4724 18.8634 87.4724 18.2852ZM89.9468 19.2407C90.544 19.2407 91.0228 19.0741 91.383 18.7409C91.7433 18.4077 91.9234 17.8785 91.9234 17.1533V16.8299L89.833 17.1533C89.5296 17.2023 89.2879 17.315 89.1078 17.4914C88.9276 17.6678 88.8376 17.9079 88.8376 18.2117C88.8376 18.4861 88.9371 18.7262 89.1362 18.932C89.3448 19.1378 89.6149 19.2407 89.9468 19.2407ZM96.9106 23.1363H95.4459L97.1524 19.4024L94.2088 13.1108H95.7446L97.8776 17.9912L99.9253 13.1108H101.362L96.9106 23.1363Z" fill="black"/>
<path opacity="0.6" d="M29.1559 4.08107V2.01466H27.2382V2.68666H28.4517C28.4084 2.96666 28.1321 3.45946 27.4224 3.45946C26.7778 3.45946 26.209 2.99466 26.209 2.09866C26.209 1.15785 26.8374 0.749046 27.417 0.749046C28.04 0.749046 28.3596 1.15785 28.4571 1.51065L29.1722 1.24745C28.9826 0.637046 28.4246 0.0266418 27.417 0.0266418C26.3769 0.0266418 25.4505 0.816247 25.4505 2.09866C25.4505 3.38106 26.3336 4.16507 27.3683 4.16507C27.9479 4.16507 28.3271 3.89627 28.5005 3.62747L28.5492 4.08107H29.1559ZM33.3313 4.08107V3.35306H31.6736V2.43466H33.1742V1.74585H31.6736V0.838647H33.3313V0.110642H30.926V4.08107H33.3313ZM37.9861 0.844248V0.110642H34.8061V0.844248H36.0196V4.08107H36.7726V0.844248H37.9861ZM42.6406 4.08107V0.110642H41.8822V4.08107H42.6406ZM47.3605 0.844248V0.110642H44.1806V0.844248H45.394V4.08107H46.147V0.844248H47.3605ZM51.8037 2.09306C51.8037 1.19705 52.4105 0.771447 53.0009 0.771447C53.5968 0.771447 54.2036 1.19705 54.2036 2.09306C54.2036 2.98906 53.5968 3.41466 53.0009 3.41466C52.4105 3.41466 51.8037 2.98906 51.8037 2.09306ZM51.0291 2.09866C51.0291 3.37546 51.9608 4.16507 53.0009 4.16507C54.0465 4.16507 54.9782 3.37546 54.9782 2.09866C54.9782 0.816247 54.0465 0.0266418 53.0009 0.0266418C51.9608 0.0266418 51.0291 0.816247 51.0291 2.09866ZM59.9199 4.08107V0.110642H59.1723V2.73706L57.5739 0.110642H56.6422V4.08107H57.3897V1.26425L59.1344 4.08107H59.9199Z" fill="black"/>
<path d="M3.60955 19.895C3.20847 20.163 2.72675 20.244 2.27481 20.1336L10.2159 11.9247L12.7896 14.5852L3.60955 19.895Z" fill="black"/>
<path d="M1.28955 19.4652C1.06812 19.1609 0.940613 18.7871 0.940613 18.3918V3.76917C0.940613 3.3738 1.06812 3.00007 1.28955 2.69571L9.40067 11.0804L1.28955 19.4652Z" fill="black"/>
<path d="M16.1494 12.642L13.8363 13.9798L11.0322 11.0812L13.8365 8.18237L16.1498 9.52036C16.704 9.84131 17.0348 10.4248 17.0348 11.0812C17.0348 11.7376 16.704 12.3209 16.1494 12.642Z" fill="black"/>
<path d="M10.2154 10.2382L2.27481 2.02977C2.40496 1.99806 2.53748 1.98105 2.66993 1.98105C2.9974 1.98105 3.32366 2.0773 3.60908 2.26791L12.7892 7.57766L10.2154 10.2382Z" fill="black"/>
</svg>
