<svg width="56" height="56" viewBox="0 0 56 56" fill="none" xmlns="http://www.w3.org/2000/svg">
<path d="M28 4.64233C15.0976 4.64233 4.6424 15.1031 4.6424 27.9999C4.6424 40.8967 15.1032 51.3575 28 51.3575C40.8968 51.3575 51.3576 40.8967 51.3576 27.9999C51.3576 15.1031 40.9024 4.64233 28 4.64233ZM38.332 28.2183L24.9648 38.1023C24.6792 38.3375 24.3152 38.4439 23.9792 38.4439C23.7272 38.4439 23.4752 38.3711 23.2232 38.2647C22.6688 37.9791 22.3272 37.4191 22.3272 36.7919V18.6087C22.3272 17.9983 22.6352 17.4607 23.1728 17.1695C23.6936 16.8615 24.3432 16.8839 24.864 17.2087L38.2312 25.4911C38.6792 25.7991 38.9872 26.2807 39.004 26.8407C39.0208 27.3783 38.7688 27.8991 38.3376 28.2239L38.332 28.2183Z" fill="white"/>
</svg>
