<svg width="14" height="14" viewBox="0 0 14 14" fill="none" xmlns="http://www.w3.org/2000/svg">
<path d="M6.4 9.66665C6.4 9.99802 6.66863 10.2666 7 10.2666C7.33137 10.2666 7.6 9.99802 7.6 9.66665H6.4ZM7.6 2.33331C7.6 2.00194 7.33137 1.73331 7 1.73331C6.66863 1.73331 6.4 2.00194 6.4 2.33331L7.6 2.33331ZM9.2424 4.09091C9.47672 4.32523 9.85662 4.32523 10.0909 4.09091C10.3252 3.8566 10.3252 3.4767 10.0909 3.24238L9.2424 4.09091ZM7.4714 1.47139L7.04714 1.89565L7.4714 1.47139ZM6.5286 1.47139L6.95286 1.89565V1.89565L6.5286 1.47139ZM3.90907 3.24238C3.67475 3.4767 3.67475 3.8566 3.90907 4.09091C4.14338 4.32523 4.52328 4.32523 4.7576 4.09091L3.90907 3.24238ZM1.6 9.66665C1.6 9.33528 1.33137 9.06665 1 9.06665C0.668629 9.06665 0.4 9.33528 0.4 9.66665H1.6ZM13.6 9.66665C13.6 9.33528 13.3314 9.06665 13 9.06665C12.6686 9.06665 12.4 9.33528 12.4 9.66665H13.6ZM11.908 12.782L11.6356 12.2474V12.2474L11.908 12.782ZM12.782 11.908L13.3166 12.1804L12.782 11.908ZM1.21799 11.908L0.683383 12.1804L1.21799 11.908ZM2.09202 12.782L1.81962 13.3166H1.81962L2.09202 12.782ZM7.6 9.66665L7.6 2.33331L6.4 2.33331L6.4 9.66665H7.6ZM10.0909 3.24238L7.89567 1.04712L7.04714 1.89565L9.2424 4.09091L10.0909 3.24238ZM6.10433 1.04712L3.90907 3.24238L4.7576 4.09091L6.95286 1.89565L6.10433 1.04712ZM7.89567 1.04712C7.401 0.552456 6.59899 0.552458 6.10433 1.04712L6.95286 1.89565C6.9789 1.86961 7.02111 1.86961 7.04714 1.89565L7.89567 1.04712ZM0.4 9.66665V9.79998H1.6V9.66665H0.4ZM4.2 13.6H9.8V12.4H4.2V13.6ZM13.6 9.79998V9.66665H12.4V9.79998H13.6ZM9.8 13.6C10.3502 13.6 10.7989 13.6004 11.1625 13.5707C11.5331 13.5405 11.8678 13.4759 12.1804 13.3166L11.6356 12.2474C11.5204 12.3061 11.3611 12.3505 11.0647 12.3747C10.7613 12.3995 10.37 12.4 9.8 12.4V13.6ZM12.4 9.79998C12.4 10.3699 12.3995 10.7613 12.3747 11.0647C12.3505 11.3611 12.3061 11.5203 12.2474 11.6356L13.3166 12.1804C13.4759 11.8678 13.5405 11.533 13.5708 11.1624C13.6005 10.7988 13.6 10.3501 13.6 9.79998H12.4ZM12.1804 13.3166C12.6696 13.0673 13.0673 12.6696 13.3166 12.1804L12.2474 11.6356C12.1132 11.899 11.899 12.1132 11.6356 12.2474L12.1804 13.3166ZM0.4 9.79998C0.4 10.3501 0.399533 10.7988 0.429241 11.1624C0.459521 11.533 0.524109 11.8678 0.683383 12.1804L1.75259 11.6356C1.69388 11.5203 1.64947 11.3611 1.62526 11.0647C1.60047 10.7613 1.6 10.3699 1.6 9.79998H0.4ZM4.2 12.4C3.63005 12.4 3.23867 12.3995 2.93526 12.3747C2.63886 12.3505 2.47964 12.3061 2.36441 12.2474L1.81962 13.3166C2.13222 13.4759 2.46694 13.5405 2.83754 13.5707C3.20115 13.6004 3.64985 13.6 4.2 13.6V12.4ZM0.683383 12.1804C0.932654 12.6696 1.3304 13.0673 1.81962 13.3166L2.36441 12.2474C2.10099 12.1132 1.88681 11.899 1.75259 11.6356L0.683383 12.1804Z" fill="#808080"/>
</svg>
