<svg width="24" height="24" viewBox="0 0 24 24" fill="none" xmlns="http://www.w3.org/2000/svg">
<path d="M8.25925 20.992C6.33303 20.992 4.52686 20.5838 2.8781 19.7728C2.60864 19.642 2.35519 19.498 2.09907 19.3486C1.91499 19.2419 1.70689 19.0231 1.67487 18.727C1.65086 18.5082 1.71489 18.3028 1.85096 18.1453C2.00036 17.9773 2.20845 17.8866 2.47524 17.8812H2.5206C3.24093 17.8626 3.91858 17.8492 4.56955 17.6785C5.25786 17.497 5.8368 17.2809 6.33836 17.0115C5.24452 16.5713 4.3988 15.8189 3.82787 14.7731C3.68914 14.5197 3.4597 14.0981 3.6838 13.6793C3.73983 13.5752 3.81453 13.4925 3.89724 13.4312C2.91812 12.6762 2.30183 11.6784 2.05905 10.4645C2.00569 10.1977 1.92299 9.77881 2.20045 9.33594L2.44056 8.95443L2.68334 9.01046C1.92032 7.73787 1.78426 6.34523 2.28316 4.86988C2.33385 4.72047 2.40321 4.59775 2.45924 4.50171L2.49659 4.43501C2.62465 4.2029 2.84875 4.04816 3.1102 4.00815C3.37166 3.97079 3.62778 4.05083 3.8172 4.23492C3.98528 4.39766 4.15335 4.56574 4.31876 4.73381L4.48417 4.89922C6.08225 6.5053 8.03515 7.54845 10.2895 7.99399C10.527 8.04201 10.7778 8.06335 11.0392 8.08203C11.0392 7.91128 11.0392 7.73253 11.0499 7.54845C11.1779 5.73961 12.069 4.36031 13.6244 3.55994C15.3399 2.67953 17.106 2.8396 18.7308 4.02415C18.7975 4.07217 18.8615 4.13087 18.9255 4.18689L18.9575 4.21624C19.0109 4.26426 19.0669 4.31762 19.3017 4.22691C19.5178 4.14421 19.7312 4.05884 19.9473 3.97346C20.2568 3.85074 20.5689 3.72802 20.8811 3.60796C21.1586 3.50391 21.5027 3.58128 21.7188 3.79471C21.9162 3.98947 21.9963 4.31762 21.9136 4.59242C21.8362 4.83786 21.7321 5.0593 21.6121 5.26206C21.8495 5.30208 22.0603 5.44081 22.1964 5.65691C22.4098 5.99306 22.3724 6.41726 22.1083 6.71073C21.6841 7.18028 21.0838 7.81524 20.6356 8.17007C20.6303 8.19408 20.625 8.24477 20.625 8.35949C20.625 9.3813 20.5449 10.227 20.3688 11.0221C19.6805 14.1275 18.1251 16.654 15.748 18.5269C13.9152 19.9702 11.7249 20.7919 9.2357 20.9653C8.90755 20.9893 8.58207 21 8.25925 21V20.992ZM4.3321 19.0231C5.81546 19.586 7.4322 19.8128 9.14766 19.6927C11.378 19.538 13.3336 18.807 14.9637 17.5237C17.1033 15.8376 18.5067 13.5539 19.1309 10.7419C19.2857 10.0403 19.3577 9.28258 19.3577 8.35682C19.3577 8.11938 19.3577 7.55912 19.8406 7.17761C19.9793 7.06823 20.1528 6.90815 20.3582 6.70806C20.0941 6.66004 19.9393 6.47329 19.8753 6.39858C19.6645 6.15314 19.6458 5.7823 19.8246 5.52618C19.87 5.45948 19.9206 5.39279 19.9713 5.32342C19.902 5.3501 19.8326 5.37945 19.7606 5.40612C18.9655 5.7156 18.4213 5.44081 18.1065 5.15534L18.0691 5.12066C18.0424 5.09665 18.0158 5.06997 17.9864 5.04863C16.7405 4.13887 15.5026 4.02149 14.206 4.68846C13.0481 5.2834 12.4132 6.27586 12.3171 7.63916C12.3065 7.78056 12.3065 7.93263 12.3091 8.09003C12.3091 8.21276 12.3091 8.33815 12.3065 8.46087C12.2985 8.72499 12.1837 8.97311 11.9943 9.14652C11.8129 9.31193 11.5755 9.3893 11.3353 9.37596L11.1486 9.36262C10.7911 9.33861 10.4203 9.3146 10.0441 9.2399C7.53892 8.74367 5.36458 7.5858 3.58509 5.79564L3.41701 5.62756C3.41701 5.62756 3.39834 5.60889 3.39033 5.59821C3.09687 6.72407 3.29963 7.74587 4.00395 8.70899C4.07332 8.80503 4.15069 8.89307 4.22539 8.98378C4.30809 9.08249 4.3908 9.1812 4.46817 9.28525C4.65492 9.53337 4.67093 9.9042 4.51085 10.171C4.34544 10.4431 3.99328 10.6005 3.68647 10.5392C3.57709 10.5178 3.47037 10.4938 3.36099 10.4698C3.6091 11.3982 4.14535 12.1159 5.00175 12.6628C5.07378 12.7082 5.14581 12.7535 5.21785 12.7989C5.36458 12.8896 5.50865 12.9803 5.65005 13.0763L5.92484 13.2631L5.93284 13.6179C5.93284 13.69 5.92217 14.0555 5.62337 14.2689C5.44729 14.3943 5.26854 14.4423 5.1138 14.4583C5.54867 15.1199 6.13294 15.5842 6.89862 15.8696C7.01601 15.915 7.13607 15.9523 7.25879 15.9897C7.37351 16.0244 7.48823 16.0617 7.60028 16.1017C7.90976 16.2111 8.12319 16.4592 8.17121 16.7634C8.21923 17.0675 8.09117 17.3663 7.82972 17.5611C7.03735 18.1587 6.10092 18.5856 4.88703 18.9057C4.70027 18.9537 4.51619 18.9937 4.32944 19.0231H4.3321ZM3.60643 5.04596L3.6011 5.05396C3.6011 5.05396 3.60377 5.04863 3.60643 5.04596Z" fill="#808080"/>
</svg>
