<svg width="24" height="24" viewBox="0 0 24 24" fill="none" xmlns="http://www.w3.org/2000/svg">
<ellipse cx="12" cy="16.5" rx="6" ry="2.5" stroke="#808080" stroke-width="1.2" stroke-linejoin="round"/>
<circle cx="12" cy="8" r="3" stroke="#808080" stroke-width="1.2" stroke-linejoin="round"/>
<path fill-rule="evenodd" clip-rule="evenodd" d="M6.15564 13.4271C5.04636 13.499 4.03587 13.711 3.24163 14.0287C2.74738 14.2264 2.30714 14.4768 1.98065 14.7856C1.6529 15.0955 1.39999 15.5057 1.39999 16C1.39999 16.4943 1.6529 16.9045 1.98065 17.2144C2.30714 17.5232 2.74738 17.7736 3.24163 17.9713C3.68226 18.1475 4.18945 18.2913 4.74314 18.3966C4.38184 17.9599 4.14144 17.4852 4.04613 16.9861C3.92012 16.9454 3.80034 16.9023 3.68729 16.8571C3.27672 16.6929 2.98472 16.5123 2.80518 16.3426C2.62691 16.174 2.59999 16.058 2.59999 16C2.59999 15.942 2.62691 15.826 2.80518 15.6574C2.98472 15.4876 3.27672 15.3071 3.68729 15.1429C3.93907 15.0422 4.22432 14.952 4.53719 14.8755C4.90982 14.3342 5.46319 13.8436 6.15564 13.4271Z" fill="#808080"/>
<path fill-rule="evenodd" clip-rule="evenodd" d="M19.9539 16.9861C19.8586 17.4852 19.6182 17.9599 19.2569 18.3966C19.8106 18.2913 20.3178 18.1475 20.7584 17.9713C21.2526 17.7736 21.6929 17.5232 22.0194 17.2144C22.3471 16.9045 22.6 16.4943 22.6 16C22.6 15.5057 22.3471 15.0955 22.0194 14.7856C21.6929 14.4768 21.2526 14.2264 20.7584 14.0287C19.9642 13.711 18.9537 13.499 17.8444 13.4271C18.5368 13.8436 19.0902 14.3342 19.4628 14.8755C19.7757 14.952 20.061 15.0422 20.3127 15.1429C20.7233 15.3071 21.0153 15.4876 21.1948 15.6574C21.3731 15.826 21.4 15.942 21.4 16C21.4 16.058 21.3731 16.174 21.1948 16.3426C21.0153 16.5123 20.7233 16.6929 20.3127 16.8571C20.1997 16.9023 20.0799 16.9454 19.9539 16.9861Z" fill="#808080"/>
<path fill-rule="evenodd" clip-rule="evenodd" d="M16.4476 10.2868C16.2611 10.6488 16.0316 10.9852 15.766 11.2891C16.1331 11.4874 16.5534 11.6 17 11.6C18.4359 11.6 19.6 10.4359 19.6 8.99999C19.6 7.56405 18.4359 6.39999 17 6.39999C16.9132 6.39999 16.8274 6.40425 16.7427 6.41256C16.8691 6.79032 16.9516 7.18818 16.9842 7.60008C16.9895 7.60002 16.9947 7.59999 17 7.59999C17.7732 7.59999 18.4 8.2268 18.4 8.99999C18.4 9.77319 17.7732 10.4 17 10.4C16.8038 10.4 16.6171 10.3596 16.4476 10.2868Z" fill="#808080"/>
<path fill-rule="evenodd" clip-rule="evenodd" d="M7.25725 6.41256C7.17262 6.40425 7.08681 6.39999 6.99999 6.39999C5.56405 6.39999 4.39999 7.56405 4.39999 8.99999C4.39999 10.4359 5.56405 11.6 6.99999 11.6C7.44657 11.6 7.86685 11.4874 8.234 11.2891C7.96837 10.9852 7.73893 10.6488 7.5524 10.2868C7.38292 10.3596 7.19617 10.4 6.99999 10.4C6.2268 10.4 5.59999 9.77319 5.59999 8.99999C5.59999 8.2268 6.2268 7.59999 6.99999 7.59999C7.00525 7.59999 7.01051 7.60002 7.01575 7.60008C7.04835 7.18818 7.13087 6.79032 7.25725 6.41256Z" fill="#808080"/>
</svg>
