<svg width="24" height="24" viewBox="0 0 24 24" fill="none" xmlns="http://www.w3.org/2000/svg">
<path d="M12 3.75C9.075 3.75 6.75 6.075 6.75 9C6.74487 9.86015 6.95239 10.7082 7.35408 11.4688C7.75578 12.2295 8.33921 12.879 9.0525 13.3597C6.3825 14.5095 4.5 17.169 4.5 20.25H6C6 16.95 8.7 14.25 12 14.25C14.925 14.25 17.25 11.925 17.25 9C17.25 6.075 14.925 3.75 12 3.75ZM12 5.25C14.1 5.25 15.75 6.9 15.75 9C15.75 11.1 14.1 12.75 12 12.75C9.9 12.75 8.25 11.1 8.25 9C8.25 6.9 9.9 5.25 12 5.25ZM18.075 13.5V15.075C17.625 15.15 17.175 15.375 16.8 15.6L15.675 14.475L14.625 15.525L15.75 16.65C15.45 17.025 15.3 17.475 15.225 18H13.5V19.5H15.075C15.15 19.95 15.375 20.4 15.6 20.85L14.475 21.975L15.525 23.025L16.65 21.9C17.025 22.125 17.475 22.35 17.925 22.425V24H19.425V22.425C19.875 22.35 20.325 22.125 20.7 21.9L21.825 23.025L22.875 21.975L21.75 20.85C22.05 20.475 22.2 20.025 22.275 19.5H24V18H22.425C22.35 17.55 22.125 17.1 21.9 16.65L23.025 15.525L21.975 14.475L20.85 15.6C20.475 15.375 20.025 15.15 19.575 15.075V13.5H18.075ZM18.75 16.5C20.025 16.5 21 17.475 21 18.75C21 20.025 20.025 21 18.75 21C17.475 21 16.5 20.025 16.5 18.75C16.5 17.475 17.475 16.5 18.75 16.5ZM18.75 18C18.6546 18.0012 18.5607 18.0232 18.4747 18.0645C18.3855 18.1069 18.3043 18.1645 18.2347 18.2347C18.1645 18.3043 18.1069 18.3855 18.0645 18.4747C18.0232 18.5607 18.0012 18.6546 18 18.75C18 19.0312 18.2107 19.3125 18.4747 19.4355C18.5607 19.4768 18.6546 19.4988 18.75 19.5C19.125 19.5 19.5 19.125 19.5 18.75C19.5 18.375 19.125 18 18.75 18Z" fill="#808080"/>
</svg>
