<svg width="16" height="16" viewBox="0 0 16 16" fill="none" xmlns="http://www.w3.org/2000/svg">
<path d="M5.31335 8.35336C5.26695 8.30696 5.23014 8.25188 5.20503 8.19125C5.17992 8.13063 5.16699 8.06565 5.16699 8.00003C5.16699 7.93441 5.17992 7.86943 5.20503 7.80881C5.23014 7.74818 5.26695 7.6931 5.31335 7.64669C5.35975 7.60029 5.41483 7.56349 5.47546 7.53838C5.53608 7.51326 5.60106 7.50034 5.66668 7.50034C5.7323 7.50034 5.79728 7.51326 5.8579 7.53838C5.91853 7.56349 5.97361 7.60029 6.02001 7.64669L7.22201 8.84869L9.98002 6.09069C10.0744 5.99966 10.2007 5.94932 10.3318 5.95052C10.4629 5.95172 10.5883 6.00437 10.6809 6.09711C10.7736 6.18986 10.8261 6.31529 10.8272 6.44639C10.8283 6.57749 10.7778 6.70377 10.6867 6.79803L7.57601 9.90936C7.52958 9.95582 7.47445 9.99268 7.41376 10.0178C7.35308 10.043 7.28804 10.0559 7.22235 10.0559C7.15666 10.0559 7.09162 10.043 7.03093 10.0178C6.97025 9.99268 6.91511 9.95582 6.86868 9.90936L5.31335 8.35336Z" fill="#2C36F0"/>
<path d="M7.15466 1.18334C7.26566 1.07231 7.39745 0.984237 7.54249 0.924148C7.68754 0.864058 7.843 0.83313 8 0.83313C8.15699 0.83313 8.31245 0.864058 8.4575 0.924148C8.60254 0.984237 8.73433 1.07231 8.84533 1.18334L9.80866 2.14667C9.85266 2.19067 9.91533 2.21134 9.97733 2.20134L11.3227 1.98867C11.6358 1.93914 11.9557 2.01595 12.2123 2.20221C12.4688 2.38847 12.6408 2.66894 12.6907 2.98201L12.9033 4.32734C12.9082 4.35788 12.9202 4.38684 12.9384 4.41186C12.9566 4.43688 12.9805 4.45726 13.008 4.47134L14.2213 5.08934C14.5037 5.23348 14.7173 5.48376 14.8153 5.78523C14.9133 6.08671 14.8876 6.41474 14.744 6.69734L14.126 7.91134C14.1118 7.93875 14.1045 7.96916 14.1045 8.00001C14.1045 8.03086 14.1118 8.06126 14.126 8.08867L14.744 9.30267C14.8154 9.44255 14.8585 9.59513 14.8709 9.75168C14.8832 9.90823 14.8646 10.0657 14.8161 10.215C14.7675 10.3644 14.69 10.5027 14.5879 10.6221C14.4859 10.7414 14.3613 10.8395 14.2213 10.9107L13.008 11.5287C12.9805 11.5428 12.9566 11.5631 12.9384 11.5882C12.9202 11.6132 12.9082 11.6421 12.9033 11.6727L12.6907 13.018C12.6408 13.3311 12.4688 13.6115 12.2123 13.7978C11.9557 13.9841 11.6358 14.0609 11.3227 14.0113L9.97733 13.7987C9.94689 13.7938 9.91573 13.7962 9.88641 13.8057C9.85709 13.8152 9.83044 13.8315 9.80866 13.8533L8.84533 14.8167C8.73433 14.9277 8.60254 15.0158 8.4575 15.0759C8.31245 15.136 8.15699 15.1669 8 15.1669C7.843 15.1669 7.68754 15.136 7.54249 15.0759C7.39745 15.0158 7.26566 14.9277 7.15466 14.8167L6.19133 13.8533C6.16955 13.8315 6.1429 13.8152 6.11358 13.8057C6.08426 13.7962 6.0531 13.7938 6.02266 13.7987L4.67733 14.0113C4.36422 14.0609 4.04425 13.9841 3.78774 13.7978C3.53123 13.6115 3.35915 13.3311 3.30933 13.018L3.09666 11.6727C3.09177 11.6421 3.07974 11.6132 3.06155 11.5882C3.04337 11.5631 3.01954 11.5428 2.992 11.5287L1.77866 10.9107C1.49633 10.7665 1.28272 10.5163 1.18473 10.2148C1.08673 9.91331 1.11237 9.58527 1.256 9.30267L1.874 8.08867C1.88814 8.06126 1.89553 8.03086 1.89553 8.00001C1.89553 7.96916 1.88814 7.93875 1.874 7.91134L1.256 6.69734C1.18461 6.55746 1.1415 6.40488 1.12914 6.24833C1.11677 6.09178 1.13539 5.93432 1.18394 5.78497C1.23248 5.63563 1.31 5.49731 1.41205 5.37795C1.51409 5.25858 1.63868 5.16051 1.77866 5.08934L2.992 4.47134C3.01954 4.45726 3.04337 4.43688 3.06155 4.41186C3.07974 4.38684 3.09177 4.35788 3.09666 4.32734L3.30933 2.98201C3.35915 2.66894 3.53123 2.38847 3.78774 2.20221C4.04425 2.01595 4.36422 1.93914 4.67733 1.98867L6.02266 2.20134C6.0531 2.20623 6.08426 2.20383 6.11358 2.19432C6.1429 2.18482 6.16955 2.16849 6.19133 2.14667L7.15466 1.18334ZM7.862 1.89067L6.89866 2.85401C6.76522 2.98745 6.60209 3.0874 6.4226 3.14569C6.24311 3.20397 6.05237 3.21893 5.866 3.18934L4.52066 2.97601C4.49531 2.97193 4.46939 2.97291 4.44442 2.97889C4.41944 2.98487 4.39589 2.99573 4.37513 3.01085C4.35437 3.02597 4.33681 3.04505 4.32346 3.06699C4.31011 3.08892 4.30122 3.11329 4.29733 3.13867L4.084 4.48401C4.05463 4.67037 3.98149 4.84711 3.87059 4.99973C3.75968 5.15236 3.61417 5.27651 3.446 5.36201L2.232 5.98067C2.18586 6.0042 2.15095 6.04508 2.13495 6.09434C2.11894 6.14359 2.12316 6.19719 2.14666 6.24334L2.76533 7.45734C2.85112 7.62537 2.89586 7.81134 2.89586 8.00001C2.89586 8.18867 2.85112 8.37465 2.76533 8.54267L2.14666 9.75667C2.12316 9.80282 2.11894 9.85642 2.13495 9.90567C2.15095 9.95493 2.18586 9.99581 2.232 10.0193L3.446 10.638C3.78733 10.8113 4.024 11.138 4.084 11.516L4.29733 12.8613C4.30122 12.8867 4.31011 12.9111 4.32346 12.933C4.33681 12.955 4.35437 12.974 4.37513 12.9892C4.39589 13.0043 4.41944 13.0151 4.44442 13.0211C4.46939 13.0271 4.49531 13.0281 4.52066 13.024L5.866 12.8107C6.05237 12.7811 6.24311 12.796 6.4226 12.8543C6.60209 12.9126 6.76522 13.0126 6.89866 13.146L7.862 14.1093C7.88008 14.1275 7.90159 14.1419 7.92527 14.1518C7.94895 14.1616 7.97435 14.1667 8 14.1667C8.02564 14.1667 8.05104 14.1616 8.07472 14.1518C8.0984 14.1419 8.11991 14.1275 8.138 14.1093L9.10133 13.146C9.23477 13.0126 9.3979 12.9126 9.57739 12.8543C9.75688 12.796 9.94762 12.7811 10.134 12.8107L11.4793 13.024C11.5047 13.0281 11.5306 13.0271 11.5556 13.0211C11.5806 13.0151 11.6041 13.0043 11.6249 12.9892C11.6456 12.974 11.6632 12.955 11.6765 12.933C11.6899 12.9111 11.6988 12.8867 11.7027 12.8613L11.916 11.516C11.9454 11.3296 12.0185 11.1529 12.1294 11.0003C12.2403 10.8477 12.3858 10.7235 12.554 10.638L13.768 10.0193C13.8141 9.99581 13.849 9.95493 13.865 9.90567C13.881 9.85642 13.8768 9.80282 13.8533 9.75667L13.2347 8.54267C13.1489 8.37465 13.1041 8.18867 13.1041 8.00001C13.1041 7.81134 13.1489 7.62537 13.2347 7.45734L13.8533 6.24334C13.8768 6.19719 13.881 6.14359 13.865 6.09434C13.849 6.04508 13.8141 6.0042 13.768 5.98067L12.554 5.36201C12.3858 5.27651 12.2403 5.15236 12.1294 4.99973C12.0185 4.84711 11.9454 4.67037 11.916 4.48401L11.7027 3.13867C11.6988 3.11329 11.6899 3.08892 11.6765 3.06699C11.6632 3.04505 11.6456 3.02597 11.6249 3.01085C11.6041 2.99573 11.5806 2.98487 11.5556 2.97889C11.5306 2.97291 11.5047 2.97193 11.4793 2.97601L10.134 3.18934C9.94762 3.21893 9.75688 3.20397 9.57739 3.14569C9.3979 3.0874 9.23477 2.98745 9.10133 2.85401L8.138 1.89067C8.11991 1.87249 8.0984 1.85806 8.07472 1.84822C8.05104 1.83837 8.02564 1.83331 8 1.83331C7.97435 1.83331 7.94895 1.83837 7.92527 1.84822C7.90159 1.85806 7.88008 1.87249 7.862 1.89067Z" fill="#2C36F0"/>
</svg>
